<svg xmlns="http://www.w3.org/2000/svg" width="147.446" height="36.109" viewBox="0 0 147.446 36.109"><g transform="translate(-37.978 -8.606)"><g transform="translate(37.978 8.606)"><g transform="translate(13.397 9.695)"><path d="M10.894,26.388C4.167,26.388.078,22.823,0,17.457H8.183c0,1.811,1.256,2.645,2.869,2.645,1.244,0,2.423-.636,2.423-1.917,0-1.428-1.869-1.836-4.24-2.229-3.827-.623-8.9-1.781-8.9-7.787C.334,3.205,4.55,0,10.874,0,17.16,0,21.234,3.355,21.33,8.373H13.369c0-1.581-1.06-2.316-2.6-2.316-1.363,0-2.279.677-2.279,1.825,0,1.409,1.888,1.737,4.233,2.157,3.9.7,9.084,1.508,9.084,7.788,0,5.175-4.354,8.562-10.914,8.562Z" transform="translate(46.669)" fill="#262623"/><path d="M10.894,26.388C4.167,26.388.078,22.823,0,17.457H8.183c0,1.811,1.257,2.645,2.869,2.645,1.244,0,2.423-.636,2.423-1.917,0-1.428-1.869-1.836-4.24-2.229-3.827-.623-8.9-1.781-8.9-7.787C.334,3.205,4.55,0,10.874,0,17.16,0,21.234,3.355,21.331,8.373H13.369c0-1.581-1.06-2.316-2.6-2.316-1.363,0-2.279.677-2.279,1.825,0,1.409,1.888,1.737,4.233,2.157,3.9.7,9.084,1.508,9.084,7.788,0,5.175-4.354,8.562-10.914,8.562Z" transform="translate(71.111)" fill="#262623"/><path d="M.149.154H.159" transform="translate(-0.149 7.528)" fill="#1c1c1c"/><path d="M.155.155h0" transform="translate(-0.153 18.59)" fill="#1c1c1c"/></g><path d="M0,24.764H8.5V0H0Z" transform="translate(109.235 10.507)" fill="#262623"/><path d="M13.407,26.388a13.508,13.508,0,0,1-9.592-3.769A13.116,13.116,0,0,1,0,13.175,13.073,13.073,0,0,1,3.8,3.74,13.548,13.548,0,0,1,13.407,0a14.768,14.768,0,0,1,5.461,1,12.559,12.559,0,0,1,8,11.955,15.776,15.776,0,0,1-.176,2.259H8.368a5.435,5.435,0,0,0,1.721,3.22,4.985,4.985,0,0,0,3.318,1.089,4.958,4.958,0,0,0,4.462-2.322h8.46a12.7,12.7,0,0,1-4.79,6.711A13.939,13.939,0,0,1,13.407,26.388Zm0-19.7a4.793,4.793,0,0,0-4.889,3.81H18.5a5.356,5.356,0,0,0-1.863-2.833A5.252,5.252,0,0,0,13.407,6.684Z" transform="translate(120.574 9.696)" fill="#262623"/><path d="M21.228.746l-.87,1.915A11.685,11.685,0,0,0,12.816,0,12.419,12.419,0,0,0,.021,10.979l0,.206H7.228a5.891,5.891,0,1,1,0,3.925H0A12.431,12.431,0,0,0,12.815,26.349a11.538,11.538,0,0,0,7.448-2.589l.728,1.752h6.573V.746Z" transform="translate(29.839 9.76)" fill="#262623"/><path d="M18.938,15.137a5.891,5.891,0,1,1,0-3.925h7.792l-.005-.237C25.795,4.387,20.592,0,13.655,0,5.687,0,0,5.459,0,13.121S5.714,26.348,13.629,26.348h0A12.814,12.814,0,0,0,26.807,15.137Z" transform="translate(0 9.734)" fill="#262623"/><path d="M8.425,4.226A4.212,4.212,0,1,1,4.212,0,4.219,4.219,0,0,1,8.425,4.226" transform="translate(109.234)" fill="#262623"/></g></g></svg>